<svg width="352" height="392" viewBox="0 0 352 392" fill="none" xmlns="http://www.w3.org/2000/svg">
<path d="M128.188 36.2459C142.619 -10.9135 209.381 -10.9135 223.812 36.2459L225.564 41.9716C233.245 67.0737 259.031 81.9612 284.611 76.0624L290.445 74.7169C338.502 63.6347 371.883 121.452 338.257 157.529L334.174 161.909C316.276 181.112 316.276 210.888 334.174 230.091L338.257 234.471C371.883 270.548 338.502 328.365 290.445 317.283L284.611 315.938C259.031 310.039 233.245 324.926 225.564 350.028L223.812 355.754C209.381 402.914 142.619 402.914 128.188 355.754L126.436 350.028C118.755 324.926 92.9691 310.039 67.3893 315.938L61.5547 317.283C13.498 328.365 -19.8827 270.548 13.7431 234.471L17.8256 230.091C35.7241 210.888 35.7241 181.112 17.8256 161.909L13.7431 157.529C-19.8827 121.452 13.498 63.6347 61.5547 74.7169L67.3893 76.0624C92.9691 81.9613 118.755 67.0737 126.436 41.9715L128.188 36.2459Z" fill="black"/>
</svg>
