<svg xmlns="http://www.w3.org/2000/svg" viewBox="0 0 372.26 412.32"><title>Asset 2</title><g id="Layer_2" data-name="Layer 2"><g id="Layer_1-2" data-name="Layer 1"><path d="M185.21,0l-1.82,0a48.1,48.1,0,0,0-44.12,30.6,77.62,77.62,0,0,1-3.62,7.79,75.18,75.18,0,0,1-3.85,6.48L131.05,46c-.48.71-1,1.41-1.48,2.1-.72,1-1.47,2-2.23,2.91-.29.36-.58.71-.88,1.06s-.58.7-.88,1-.68.79-1,1.18-.62.67-.92,1a73.74,73.74,0,0,1-6.24,6s0,0,0,0c-1.31,1.12-2.65,2.21-4,3.25s-2.49,1.83-3.77,2.69l-1.35.88-1.37.86c-.75.47-1.52.92-2.31,1.36l-1.4.78-1.43.75c-1.37.7-2.76,1.37-4.17,2q-2.37,1-4.8,1.95h0a84.21,84.21,0,0,1-8.29,2.54l-1.32.31-1.54.34-1.34.26-1.35.25c-1.2.21-2.4.39-3.62.55q-1.28.15-2.55.27c-.45.06-.9.09-1.34.12s-.92.07-1.4.09c-2,.15-4.08.18-6.13.15a79.47,79.47,0,0,1-8.57-.62A48.12,48.12,0,0,0,7.12,103.9l-.9,1.58a47.48,47.48,0,0,0,3.5,52.3c.13.17.28.34.4.51l.33.41.31.42c.86,1.1,1.71,2.24,2.53,3.4.11.16.23.32.33.48l.09.13c.48.71,1,1.44,1.45,2.18a2.26,2.26,0,0,1,.16.26c.47.74.94,1.5,1.4,2.27l.58,1c.26.45.52.91.77,1.37h0c.33.63.68,1.27,1,1.91a1.28,1.28,0,0,1,.15.28c.18.34.34.68.51,1a2,2,0,0,1,.13.25c.24.5.47,1,.71,1.52a2,2,0,0,0,.12.26c.31.69.61,1.39.9,2.09a.61.61,0,0,1,0,.12c.18.43.36.86.53,1.29.5,1.29,1,2.57,1.4,3.86l0,.07c.29.86.57,1.73.83,2.6,0,0,0,0,0,0,.25.87.5,1.74.73,2.62s.44,1.76.64,2.64.39,1.78.56,2.68a.17.17,0,0,0,0,.07c.17.88.32,1.75.45,2.64,0,0,0,0,0,0,.14.89.26,1.8.36,2.69.08.73.17,1.47.23,2.2l.06.69c.06.67.1,1.33.14,2s.06,1.08.07,1.61a.59.59,0,0,1,0,.19c0,.69,0,1.38,0,2.07,0,.07,0,.14,0,.22,0,.77,0,1.54,0,2.33s0,1.59-.1,2.4-.08,1.59-.16,2.39-.16,1.76-.27,2.64c-.18,1.48-.39,3-.65,4.43s-.57,2.92-.9,4.37c0,0,0,0,0,0l-.36,1.46c-.12.49-.25,1-.38,1.45-.19.67-.39,1.34-.59,2a.43.43,0,0,1-.06.17c-.21.71-.44,1.41-.67,2.11-.5,1.51-1.07,3-1.67,4.51-.24.59-.5,1.18-.75,1.78-.2.43-.39.87-.59,1.32-.05.11-.11.23-.16.35a.93.93,0,0,1-.05.1c-.12.29-.25.56-.38.83-.42.88-.85,1.75-1.31,2.6-.2.38-.4.77-.62,1.15s-.29.55-.45.81a75.87,75.87,0,0,1-6.06,9.32,48.3,48.3,0,0,0-6,48.74c.37.82.76,1.64,1.17,2.44s.86,1.61,1.32,2.39L9,311.62a47.47,47.47,0,0,0,47.89,23,80.89,80.89,0,0,1,9.93-.88c.47,0,1,0,1.45,0h1.27c.41,0,.84,0,1.26,0l1.32,0,1.32.06c.79,0,1.59.09,2.38.16l2.23.22,1.35.18c.92.11,1.83.24,2.75.41l2.43.44a76.9,76.9,0,0,1,16.18,5.07c.86.37,1.71.76,2.54,1.17s1.63.78,2.43,1.2c1.12.58,2.23,1.19,3.34,1.84.54.31,1.06.63,1.59,1a3.54,3.54,0,0,1,.41.26l1.15.73c1.12.72,2.22,1.47,3.31,2.25l0,0q.63.44,1.23.9l1.06.81c1,.82,2.08,1.66,3.09,2.53.68.58,1.34,1.16,2,1.76v0c.65.6,1.29,1.21,1.93,1.83s1,1,1.54,1.58.85.89,1.27,1.34,1.08,1.19,1.61,1.81q1.53,1.77,2.95,3.63c.47.61.92,1.22,1.36,1.84.24.32.47.65.7,1l.19.28.39.56.29.41,0,.1c.29.43.57.87.86,1.32s.51.78.74,1.18a77.5,77.5,0,0,1,6.14,12.17,47.45,47.45,0,0,0,43.44,28.52h.67l1.95,0a47.43,47.43,0,0,0,10.9-1.37l1.66-.44a47.2,47.2,0,0,0,31.2-28.15,78.22,78.22,0,0,1,4.9-10.32c.67-1.19,1.36-2.34,2.07-3.47l.73-1.13c.49-.74,1-1.48,1.51-2.21.25-.36.51-.72.77-1.07.46-.63.94-1.26,1.42-1.88l.34-.44c.26-.32.53-.65.79-1,.56-.67,1.12-1.34,1.69-2s1.11-1.27,1.69-1.88l1.33-1.4a75.87,75.87,0,0,1,7.44-6.71c.88-.71,1.77-1.38,2.67-2l0,0c1-.75,2-1.46,3.1-2.15,2.15-1.41,4.38-2.73,6.66-3.93,1.13-.58,2.25-1.14,3.39-1.67,0,0,0,0,0,0,1-.47,2-.92,3.07-1.34a81.57,81.57,0,0,1,9.48-3.26l1.87-.49c.82-.21,1.63-.4,2.47-.56s1.69-.36,2.55-.51c.42-.09.83-.15,1.26-.22l.54-.09c.77-.12,1.55-.24,2.33-.33.44-.06.87-.12,1.31-.15.88-.11,1.77-.19,2.67-.25.44,0,.89-.08,1.33-.09,1.11-.08,2.21-.12,3.32-.15a80.9,80.9,0,0,1,11.51.62,48.42,48.42,0,0,0,40.36-13.55c.4-.4.79-.82,1.18-1.24a46.84,46.84,0,0,0,6.54-9l1-1.77a47.47,47.47,0,0,0-3.68-52.24c-.14-.19-.29-.37-.44-.56a79.9,79.9,0,0,1-6.22-9c-.33-.57-.68-1.14-1-1.72l-.68-1.23c-.26-.45-.51-.92-.74-1.39-.09-.17-.18-.36-.27-.54s-.21-.41-.3-.61a1.82,1.82,0,0,1-.16-.31c-.18-.36-.35-.72-.52-1.08-.33-.69-.65-1.39-.95-2.08-.62-1.43-1.21-2.88-1.75-4.34-.28-.76-.55-1.52-.8-2.29-.19-.59-.39-1.17-.56-1.76s-.43-1.41-.63-2.11c-.24-.86-.46-1.72-.67-2.58v0c-.21-.85-.41-1.71-.58-2.58q-.42-2-.72-3.93c-.07-.43-.13-.87-.19-1.31s-.13-1-.2-1.52a.13.13,0,0,0,0-.06c-.15-1.32-.28-2.65-.36-4,0-.46-.06-.91-.08-1.36a3.75,3.75,0,0,1,0-.48c0-.62-.06-1.24-.07-1.85,0-1.27,0-2.54,0-3.82,0-.91.07-1.82.13-2.71s.12-1.85.21-2.78a80.68,80.68,0,0,1,3.4-16.62c.24-.78.52-1.56.79-2.33s.63-1.75,1-2.61c.16-.43.34-.85.51-1.27.28-.69.58-1.38.88-2.06s.66-1.44,1-2.15l.59-1.19c.19-.4.39-.8.6-1.18l.59-1.11c.2-.37.4-.75.62-1.11s.48-.84.73-1.25c.92-1.6,1.91-3.16,2.95-4.68.8-1.17,1.63-2.3,2.49-3.43a48.11,48.11,0,0,0,2.93-53.67l-.64-1.08v0c-.46-.78-.95-1.56-1.45-2.31s-1-1.49-1.57-2.21A47.37,47.37,0,0,0,315.4,77.69c-.9.14-1.8.26-2.71.37h-.14c-2.56.3-5.17.46-7.8.51l-1.13,0c-.31,0-.62,0-.93,0l-1.31,0c-1.29,0-2.56-.09-3.82-.19a2.74,2.74,0,0,1-.49,0l-1.45-.12c-.63-.06-1.28-.13-1.91-.21-1.6-.2-3.18-.44-4.76-.71-.73-.14-1.45-.28-2.17-.44l-.17,0-2.06-.46L283.1,76c-.48-.11-1-.24-1.45-.39h0c-1.43-.39-2.86-.84-4.26-1.33s-2.81-1-4.19-1.58c-.82-.33-1.63-.68-2.44-1s-1.46-.65-2.17-1-1.45-.7-2.15-1.08-1.38-.72-2.05-1.1l-.18-.11c-.62-.34-1.22-.68-1.8-1l-.16-.09c-.46-.27-.92-.56-1.38-.84l-1.68-1.1-.58-.39c-.61-.4-1.21-.82-1.81-1.26s-1.45-1.07-2.17-1.62a0,0,0,0,1,0,0c-.72-.54-1.41-1.1-2.1-1.67,0,0,0,0-.05-.05-.7-.58-1.4-1.17-2.07-1.78s-1.34-1.21-2-1.84-1.31-1.25-1.94-1.91v0c-.64-.64-1.26-1.31-1.88-2a.1.1,0,0,1,0,0c-.93-1-1.82-2-2.7-3.1l-.87-1.09-.09-.1c-.47-.59-.93-1.19-1.39-1.81l-.17-.23c-.33-.45-.66-.9-1-1.36l-.16-.23c-.23-.31-.44-.63-.65-.94-.07-.09-.12-.19-.18-.27-.25-.35-.49-.71-.72-1.07a78,78,0,0,1-6.87-13c-.07-.15-.14-.32-.2-.48s-.18-.39-.25-.6A47.45,47.45,0,0,0,186.07,0Z"/></g></g></svg>