<svg width="398" height="444" viewBox="0 0 398 444" fill="none" xmlns="http://www.w3.org/2000/svg">
<path d="M152.087 33.2472C168.163 -10.3582 229.837 -10.3583 245.913 33.2472L255.709 59.817C264.048 82.4368 287.341 95.8849 311.1 91.7971L339.008 86.9956C384.81 79.1154 415.647 132.526 385.921 168.252L367.809 190.02C352.39 208.552 352.389 235.448 367.809 253.98L385.921 275.748C415.647 311.474 384.81 364.885 339.008 357.004L311.1 352.203C287.341 348.115 264.048 361.563 255.709 384.183L245.913 410.753C229.837 454.358 168.163 454.358 152.087 410.753L142.291 384.183C133.952 361.563 110.659 348.115 86.8999 352.203L58.992 357.004C13.1903 364.885 -17.6466 311.474 12.0787 275.748L30.1909 253.98C45.6105 235.448 45.6105 208.552 30.1909 190.02L12.0787 168.252C-17.6466 132.526 13.1902 79.1154 58.9919 86.9955L86.8998 91.7971C110.659 95.8849 133.952 82.4368 142.291 59.817L152.087 33.2472Z" fill="black"/>
</svg>
